<svg xmlns="http://www.w3.org/2000/svg" viewBox="0 0 724.23 711.95"><defs><style>.cls-1{fill:#fff;stroke:#000;stroke-miterlimit:10;stroke-width:2px;}</style></defs><g id="레이어_2" data-name="레이어 2"><g id="레이어_1-2" data-name="레이어 1"><path class="cls-1" d="M97,337.83s8.38-3.1,13.62-7.7c0,0,1.48-1.54,2.38,4.15s1.41,9.22,1.41,9.22.4,2-2.67,3.5-28.47,11.32-27.26,23.48-.39,19.64,10.25,23.44c0,0,2.93,4.74,24.51-6.89,0,0,3.19-2.83,4.51,1.3s5.78,13,9.45,13.5,16.08,0,26.61-3.37a266.22,266.22,0,0,1,67.8-12.65c33.28-1.87,55.11-.65,55.11-.65l1.79-.57,8.53,13.13c41.34,59,91.86,147,91.86,147,28.88,70.21-26.9,86-26.9,86-64.3,36.09-129.26,24.28-129.26,24.28s-71.53-3.28-122.71-65.62c0,0-38.06-35.43-42-66.27s-26.91-81.37-26.91-81.37-19-28.87-19-36.74-5.24-49.87,6.57-86.62,14.43-78.74,14.43-78.74l2.63-53.81S70.64,219.9,82.45,216s19.68-6.56,21-16.41,2.62-22.31,2.62-22.31,0-5.25,4.59,3.94l1,2.74-5.19,99.18s-20.93,9.56-26.41,16.16-9.42,8.56-2.86,26.93S97,337.83,97,337.83"/><path class="cls-1" d="M84.41,109.24s-15.68-10.66-9.15-16.6c0,0,.93-2,4.39-4.33s42.89-7.35,61.89-4.49,26.5,3.79,49,21.7c0,0,13.51,12.22,17.34,24.26,0,0,1.22,2.82-.75,3.16a248,248,0,0,1-65.51,6s-10.18-1.25-18.6,1.47-9.7,9.38-10,16.88S111.71,183,111.71,183l-5.63-9.61s2.49-28.13-2-40A46.3,46.3,0,0,0,84.41,109.24Z"/><path class="cls-1" d="M340.32,134.59l1.32.66s-7.94,24.79,1.28,57.67c0,0,17.09,44,21,45.35a2.27,2.27,0,0,0,1.31.65s-.66,3.29,2,7.88,12.53,18.6,12.53,18.6,5.09,7.48,10.39,6.58l11.2,11.56.65.66a7.9,7.9,0,0,0,3.23,4.89l22.52,17.24s13.62,7.4,17.56,8.71,10.5,3.28,15.75,0,20.11-16,30.07-20.78c0,0,22.72-12.24,35.37-17.71l15.27-5.47s2.62-1.32,0-3.28l38.06,24.93s-22.94-1.74-42.31,12.91c0,0-25.2,18.22-34.1,30.87,0,0-21.1,18.41,2.39,45.06,0,0,28.84,28.81,54.71,39.21,0,0,30.5,17.49,74.11,19.52,0,0,47,7,66.33-31.59,0,0,8.7-14-6-37.42,0,0,21.37,33,24,48.74,0,0,13.13,36.74-15.74,63.65s-71.53,23-71.53,23-41.33,3.28-133.2-35.43c0,0-180.45-89.24-201.44-95.15l-25.59-9.84-.84-.38-5.73-7.49a18.74,18.74,0,0,0-1.95-10.25,92.62,92.62,0,0,0-6.59-10s-6.69-9.72-15.81-12.12l-3.2-1.09L229.09,310l4.93.43s5.22-21.88-4.93-35.55c0,0-2.31-6.19-13.45-8.61l2.25-73.24s7.53,1.43,9.21-14.08a177,177,0,0,0,1-26.66l12.47-35.43s4.25,14.37,25.74,31.46,28.7,26,41.83,26.79c0,0,14.93,2.29,24.86-21.09S340.32,134.59,340.32,134.59Z"/><path class="cls-1" d="M341.64,135.25l-1-.52s4.49-18.2,5.06-25.25,3.39-23-15.09-32.74c0,0-16-4.17-24.46-14.17,0,0-13.11-13.52-12.75-19,0,0,1.53-6.28,22.6-7.51s43.51,12.38,43.51,12.38,33.34,24.45,45.15,33c0,0-39.42,21.51-52.19,31.75A65.44,65.44,0,0,0,341.64,135.25Z"/><path class="cls-1" d="M75.89,321s-5.25-14.44,3.28-21,21.65-19.69,66.27-27.56,65-7.88,70.87-5.91,12.47,2.63,17.71,19.69c0,0,2.63,7.87,0,24.28,0,0-71.52-7.88-120.73,17.71,0,0-21.65,19-31.5,6.57C81.79,334.73,79.82,333.41,75.89,321Z"/><path class="cls-1" d="M369.85,250.74s10.5,19,17.72,21,18.37-8.53,18.37-8.53c8.53-9.84,21-18.37,21-18.37,12.47-9.84,44.62-22.31,47.9-23.62s2-2,2-2l-1.31-1.31s-25.59-23-28.22-25.59-9.19-.66-9.19-.66c-36.74,8.53-60.36,32.81-60.36,32.81s-17.06,11.81-11.16,21S369.85,250.74,369.85,250.74Z"/><path class="cls-1" d="M85.07,379.34S77.2,361,108,348.5s50.53-19.68,66.93-23,45.28-9.19,70.87,2.62c0,0,17.71,13.13,19,26.91,0,0,0,13.78-5.24,12.46s-44-9.84-95.15,3.94c0,0-35.43,9.84-53.81,19.69S87,386.56,87,386.56Z"/><path class="cls-1" d="M404,288.14s-6.56-7.88,2.63-15.75,19.68-15.75,42-27.56,36.75-17.72,41.34-15.09S528,256.64,528,256.64s2,.66-3.28,2.63S478.78,277,468.93,288.14c0,0-13.12,14.43-25.59,17.06s-15.09,1.31-15.09,1.31Z"/><path class="cls-1" d="M85.73,110.31s21.65,11.16,21,41.34-1.59,54.17-8,56.94c0,0-5.72,4.47-12,5.92s-8.09,4.24-20.63-5-24.34-24.36-24.34-24.36V99.82S39.14,84.07,56.2,65,96.89,34.86,152,42.73,228.12,92.6,228.12,92.6v74.15s0,16.4-4.59,23c0,0-2.63,3.28-5.25,3.28l.65-56.73s.4-6.86-5.37-4.92l-4.43,1.1s-7.91-18.19-17.76-26.06a79.34,79.34,0,0,0-38.71-21c-24.28-5.25-59.06,0-59.06,0s-15.09,1.31-17.06,5.25-6.56,5.25,2,13.78Z"/><path class="cls-1" d="M294.39,48c-.08-.11-.15-.22-.23-.32C289,40,305.55,37.48,305.55,37.48c17.71-3.94,30.84,1.31,30.84,1.31,21,3.94,44.62,25.59,44.62,25.59l23.62,17.06c3.94-3.28,18.37-6.56,18.37-6.56s2-2.62,1.31-10.5S406.6,40.76,406.6,40.76s-19-18.37-42.65-28.87-40-12.47-61-9.84S268.8,22.39,268.8,22.39C250.43,44.7,245.18,60.45,242.56,67S238,95.22,238,95.22s-2,12.47,5.25,27.56S293.08,171.34,300.3,174s15.09,0,15.09,0c14.44-4.59,23.62-34.77,23.62-34.77s6.56-19.69,7.22-36.75c0,0,1.31-21-19-26.9S294.39,48,294.39,48Z"/><path class="cls-1" d="M16.58,394.59s-11.24,13-9.28,16.25,39.34,78.74,40,91.21,14.42,72.83,56.38,116.8,99,52.49,99,52.49S309.55,689.71,365.93,651c0,0,32.13-21.65,36.06-40,0,0-2.62-18.37-9.18-33.46,0,0,4,37.92-38.32,54.39,0,0-36.71,19.3-75.57,23.47s-86.83-.69-128.41-26.48-85.69-85.38-85.27-96.27-19.1-74.84-27.7-87.81S17.09,408.7,17.11,403.86A79.85,79.85,0,0,0,16.58,394.59Z"/><path class="cls-1" d="M269.77,366.22l14.3,18.35S444.31,458.74,446.94,462c0,0,61.68,32.81,85.3,40s77.43,26.9,112.2,22.31,68.9-23.62,73.49-40c0,0,8.54-24.28,3.94-45.93a68.67,68.67,0,0,0-1.79-9.15s5.73,34.08-17.89,54.43-48.06,21.8-48.06,21.8-31.3,7-89.06-10c0,0-59.9-16.36-125.11-52.46S269.77,366.22,269.77,366.22Z"/><path class="cls-1" d="M6.07,411.71s-5.67,12.94-5,16.22c0,0,30.19,59.06,32.81,65.62s9.84,29.53,12.47,42S63.39,588,63.39,588,74.54,615.6,91,629.38s41.34,40.68,82.68,53.15c0,0,54.46,13.12,97.11,10.5s51.84-4.6,80.05-17.06,46.59-40,50.53-46.59c0,0,2-5.25,1.31-9.19l-1.67-7.1s-.08,6.3-8.06,14.9c0,0-12.7,15-25.11,23,0,0-18.5,12.89-33.5,16.65,0,0-26.72,10.5-72.37,10.08s-63.8-5-63.8-5-46.07-9.88-70.06-30.2c0,0-31-22.09-45.52-46.79,0,0-25.62-36.13-35.84-87.84,0,0-1-8.15-5.93-21.07S6.07,411.71,6.07,411.71Z"/><path class="cls-1" d="M282.88,386.88,293,402.25l76.85,41.43,91.86,49.87s65,35.43,99.74,42c0,0,47.9,12.47,84,4.6S690,525.7,690,525.7s17.06-9.84,24.94-23l1.35-14.63s-7,23.77-66.51,37.25c0,0-20.09,6.74-72.61-7.28s-74.77-25.84-74.77-25.84l-90.32-44.61-63.94-30.2-48-22.49Z"/><path class="cls-1" d="M403.65,623.8s3.26,11.48-5.93,25.26-23,32.81-50.52,45.93-49.87,14.44-49.87,14.44-54.46,7.22-110.89-9.84c0,0-80.71-18.38-126-90.55,0,0-11.15-13.78-16.4-53.15s-26.91-81.37-26.91-81.37L6.65,456.15S.08,444.34,1.4,434.49l.65-6.56s17.82,34.54,18.75,37,13.48,27.32,13.48,27.32,12.67,37.7,14.5,49.05c0,0,17.77,57.47,24.56,64.59,0,0,10.72,20.64,36,38.82S145.12,674.91,176.6,683s84,12.34,97.77,9.88,40-.15,70.21-13.77,36.07-23,36.07-23S401.7,635.93,403.65,623.8Z"/><path class="cls-1" d="M294.05,402.34l12.07,18s56.17,33.87,88.32,50.93,82.68,48.56,143.7,70.21c0,0,37.41,19.69,92.52,13.78s64.31-19,64.31-19,15.4-15.76,19.51-31.17c0,0-11.93,25.6-68.87,35.28,0,0-35.58,10-100.72-9.51,0,0-63.69-24.52-83.78-38.1L355,435.16,321.41,417Z"/><path class="cls-1" d="M112.24,329l2.56,16.75s77.2-36.66,122.49-20.91L229.09,310S164.34,302.35,112.24,329Z"/><path class="cls-1" d="M123.09,385.92s4,17.05,13.82,16.39S152,401,169.06,395.75s51.19-11.81,99.09-11.16c0,0,7.87,0,15.74.66,0,0,3.94.66-2.62-5.91l-16.36-20.69s-.7,9.54-5.29,8.88a206.78,206.78,0,0,0-73.43-.79s-34,7-53.78,15.07C132.41,381.81,123.7,384.62,123.09,385.92Z"/><path class="cls-1" d="M428.25,95.22l5.25-10.5s6.46-11.63-5.62-11.16h-.28C415.13,74.23,379,95.88,379,95.88s-24.94,14.43-26.9,17.72-22.31,24.93-9.19,78.74c0,0,17.72,45.93,22.31,46.58,0,0,3.06-5.23,10.71-13.11s30.69-22.13,30.69-22.13,12.39-6.53,20.6-8.94S442.39,191,442.39,191l-10.2-9.13s-11.81-12.47-13.13-41.34v-5.91s-10.47,13.3-22.29,17.48c0,0-5.54,4.38-14.26-2.94s1.9-21.07,1.9-21.07a19.48,19.48,0,0,1,8.69-5.49s19-3.77,27-12.61,7.45-14.08,7.45-14.08Z"/><path class="cls-1" d="M390.48,271.84s8.31-.59,18.77-12.16,28.5-22.53,41.47-28.21,26.74-11.57,26.74-11.57l13.13,9.84s-3.49-2.59-16.84,3c0,0-44.4,19.26-65.95,38.66,0,0-6.86,4.31-6,12.18Z"/><path class="cls-1" d="M428.25,306.51s21.66,13.78,30.84,9.19,18.37-17.06,63-37.41c0,0,12.47-5.24,17.06-6.56s3.29-3.28,3.29-3.28L528,257.61s-43.15,18.27-42.58,19.15c0,0-13.19,6.79-19.77,14.66,0,0-12.85,13-25.46,14.4C440.2,305.82,430.22,307.82,428.25,306.51Z"/><path class="cls-1" d="M106.73,282.89s57.08-22.31,108.92-16.41l3.28-126.78s1.32-10.36-5.25-8.39-32.87,8.53-75.49,7.55c0,0-24-3.17-24.77,11.7S106.73,282.89,106.73,282.89Z"/><path class="cls-1" d="M305.75,416.27,372.23,523s22.56,33.55-54.87,46.67-97.11,2-97.11,2S162.5,546,127.07,499.42s72.18-87.27,91.21-89.24C218.28,410.18,256.75,402,305.75,416.27Z"/><path class="cls-1" d="M504.37,380s-20.34-19.68-3.28-40.68,58.4-60.37,91.2-42S687.44,361,687.44,361s24.28,26.9,13.12,48.56-34.77,28.21-34.77,28.21-37.41,9.85-86-8.53S504.37,380,504.37,380Z"/><path class="cls-1" d="M218.6,161.17v-5.91s-31.49,4.6-75.45,5.25c0,0-8.86,1-8.86,10.83v17.72s1.31,9.18,5.25,9.84,25.59,3.28,38.71.65c0,0,21-2.62,34.12-9.84l5.25-2.62Z"/><path class="cls-1" d="M428.25,95.22s5.25,44-35.43,58.4c0,0-17.06-2-13.13-16.4s15.75-15.09,15.75-15.09S412.5,118.85,421,109a26.56,26.56,0,0,0,6.57-13.12S428.25,94.57,428.25,95.22Z"/></g></g></svg>